<svg width="200" height="100" viewBox="0 0 200 100" fill="none" xmlns="http://www.w3.org/2000/svg">
<path d="M22.32 38.16C22.192 37.792 22.008 37.608 21.768 37.608H18.288C18.08 37.608 17.936 37.656 17.856 37.752C17.792 37.832 17.76 38 17.76 38.256V52.632C17.776 52.952 17.952 53.112 18.288 53.112H19.104C19.216 53.112 19.32 53.144 19.416 53.208C19.512 53.256 19.56 53.368 19.56 53.544C19.56 53.72 19.512 53.84 19.416 53.904C19.32 53.968 19.216 54 19.104 54H14.856C14.76 54 14.656 53.968 14.544 53.904C14.448 53.84 14.4 53.72 14.4 53.544C14.4 53.368 14.448 53.256 14.544 53.208C14.656 53.144 14.76 53.112 14.856 53.112H15.672C15.848 53.112 15.976 53.088 16.056 53.04C16.136 52.976 16.192 52.856 16.224 52.68V38.112C16.208 37.904 16.152 37.768 16.056 37.704C15.976 37.64 15.848 37.608 15.672 37.608H12.168C11.928 37.608 11.76 37.792 11.664 38.16L11.208 40.2C11.16 40.392 11.08 40.536 10.968 40.632C10.856 40.728 10.736 40.776 10.608 40.776C10.464 40.776 10.336 40.712 10.224 40.584C10.112 40.456 10.072 40.264 10.104 40.008C10.184 39.464 10.264 38.92 10.344 38.376C10.424 37.816 10.504 37.264 10.584 36.72H23.376L23.832 40.008C23.864 40.232 23.824 40.416 23.712 40.56C23.6 40.704 23.48 40.776 23.352 40.776C23.224 40.776 23.104 40.728 22.992 40.632C22.88 40.536 22.8 40.392 22.752 40.2L22.32 38.16ZM27.6015 38.736C27.6015 38.24 27.5055 37.904 27.3135 37.728C27.1215 37.552 26.7775 37.448 26.2815 37.416C25.9615 37.384 25.8015 37.264 25.8015 37.056C25.8015 36.832 25.9535 36.72 26.2575 36.72H29.1615V43.944C29.5775 43.304 30.0975 42.8 30.7215 42.432C31.3615 42.048 32.1135 41.856 32.9775 41.856C33.6815 41.856 34.3135 41.976 34.8735 42.216C35.4335 42.44 35.9055 42.76 36.2895 43.176C36.6895 43.576 36.9935 44.056 37.2015 44.616C37.4095 45.176 37.5135 45.776 37.5135 46.416V52.464C37.5135 52.72 37.5455 52.896 37.6095 52.992C37.6895 53.072 37.8255 53.112 38.0175 53.112H38.8815C38.9775 53.112 39.0735 53.144 39.1695 53.208C39.2655 53.256 39.3135 53.368 39.3135 53.544C39.3135 53.72 39.2655 53.84 39.1695 53.904C39.0735 53.968 38.9775 54 38.8815 54H34.5855C34.4895 54 34.3935 53.968 34.2975 53.904C34.2015 53.84 34.1535 53.72 34.1535 53.544C34.1535 53.368 34.2015 53.256 34.2975 53.208C34.3935 53.144 34.4895 53.112 34.5855 53.112H35.4495C35.6255 53.112 35.7455 53.08 35.8095 53.016C35.8895 52.952 35.9375 52.816 35.9535 52.608V46.416C35.9535 45.312 35.6735 44.432 35.1135 43.776C34.5695 43.12 33.8575 42.792 32.9775 42.792C32.4975 42.792 32.0335 42.912 31.5855 43.152C31.1375 43.376 30.7375 43.688 30.3855 44.088C30.0335 44.488 29.7455 44.96 29.5215 45.504C29.2975 46.032 29.1775 46.592 29.1615 47.184V52.464C29.1615 52.72 29.1935 52.896 29.2575 52.992C29.3375 53.072 29.4815 53.112 29.6895 53.112H30.5535C30.6335 53.112 30.7215 53.144 30.8175 53.208C30.9135 53.256 30.9615 53.368 30.9615 53.544C30.9615 53.72 30.9135 53.84 30.8175 53.904C30.7215 53.968 30.6335 54 30.5535 54H26.2335C26.1375 54 26.0415 53.968 25.9455 53.904C25.8495 53.84 25.8015 53.72 25.8015 53.544C25.8015 53.368 25.8495 53.256 25.9455 53.208C26.0415 53.144 26.1375 53.112 26.2335 53.112H27.0735C27.2495 53.112 27.3775 53.08 27.4575 53.016C27.5375 52.952 27.5855 52.816 27.6015 52.608V38.736ZM42.8359 48.528C42.8839 49.408 43.0439 50.16 43.3159 50.784C43.6039 51.408 43.9479 51.92 44.3479 52.32C44.7639 52.72 45.2039 53.016 45.6679 53.208C46.1479 53.384 46.6039 53.472 47.0359 53.472C47.4519 53.472 47.8279 53.416 48.1639 53.304C48.4999 53.192 48.7959 53.056 49.0519 52.896C49.3079 52.72 49.5239 52.544 49.6999 52.368C49.8759 52.192 50.0199 52.032 50.1319 51.888H51.6439C51.5479 52.048 51.3879 52.272 51.1639 52.56C50.9559 52.832 50.6599 53.104 50.2759 53.376C49.9079 53.648 49.4519 53.88 48.9079 54.072C48.3799 54.28 47.7559 54.384 47.0359 54.384C46.2999 54.384 45.5799 54.248 44.8759 53.976C44.1879 53.688 43.5719 53.272 43.0279 52.728C42.4999 52.184 42.0679 51.52 41.7319 50.736C41.4119 49.952 41.2519 49.064 41.2519 48.072C41.2519 47.176 41.3879 46.352 41.6599 45.6C41.9479 44.832 42.3399 44.176 42.8359 43.632C43.3479 43.072 43.9479 42.64 44.6359 42.336C45.3399 42.016 46.1079 41.856 46.9399 41.856C47.8999 41.856 48.7159 42.048 49.3879 42.432C50.0599 42.8 50.5959 43.296 50.9959 43.92C51.3959 44.544 51.6679 45.256 51.8119 46.056C51.9559 46.856 51.9879 47.68 51.9079 48.528H42.8359ZM50.4199 47.616C50.4359 46.752 50.3399 46.016 50.1319 45.408C49.9239 44.8 49.6439 44.296 49.2919 43.896C48.9559 43.496 48.5799 43.208 48.1639 43.032C47.7479 42.84 47.3399 42.744 46.9399 42.744C46.3639 42.744 45.8359 42.872 45.3559 43.128C44.8759 43.368 44.4519 43.712 44.0839 44.16C43.7319 44.592 43.4439 45.104 43.2199 45.696C43.0119 46.288 42.8839 46.928 42.8359 47.616H50.4199ZM64.6744 37.608V44.64H67.6744C68.2824 44.64 68.8184 44.544 69.2824 44.352C69.7464 44.16 70.1304 43.904 70.4344 43.584C70.7544 43.248 70.9944 42.872 71.1544 42.456C71.3144 42.04 71.3944 41.608 71.3944 41.16C71.3944 40.696 71.3064 40.256 71.1304 39.84C70.9704 39.408 70.7304 39.032 70.4104 38.712C70.0904 38.376 69.6824 38.112 69.1864 37.92C68.7064 37.712 68.1464 37.608 67.5064 37.608H64.6744ZM63.1144 38.736C63.1144 38.24 63.0184 37.904 62.8264 37.728C62.6344 37.552 62.2904 37.448 61.7944 37.416C61.4744 37.384 61.3144 37.264 61.3144 37.056C61.3144 36.832 61.4664 36.72 61.7704 36.72H67.5064C68.4184 36.72 69.2104 36.84 69.8824 37.08C70.5704 37.304 71.1384 37.616 71.5864 38.016C72.0504 38.416 72.3944 38.888 72.6184 39.432C72.8584 39.96 72.9784 40.536 72.9784 41.16C72.9784 41.96 72.7224 42.696 72.2104 43.368C71.7144 44.04 71.0824 44.568 70.3144 44.952C71.3064 45.288 72.1144 45.816 72.7384 46.536C73.3624 47.24 73.6744 48.152 73.6744 49.272C73.6744 50.008 73.5224 50.672 73.2184 51.264C72.9144 51.84 72.4904 52.336 71.9464 52.752C71.4024 53.152 70.7544 53.464 70.0024 53.688C69.2504 53.896 68.4184 54 67.5064 54H61.7464C61.6504 54 61.5544 53.968 61.4584 53.904C61.3624 53.84 61.3144 53.72 61.3144 53.544C61.3144 53.368 61.3624 53.256 61.4584 53.208C61.5544 53.144 61.6504 53.112 61.7464 53.112H62.5864C62.7784 53.112 62.9144 53.072 62.9944 52.992C63.0744 52.896 63.1144 52.72 63.1144 52.464V38.736ZM67.5064 53.112C68.2744 53.112 68.9464 53.008 69.5224 52.8C70.0984 52.592 70.5784 52.312 70.9624 51.96C71.3464 51.592 71.6344 51.184 71.8264 50.736C72.0184 50.272 72.1144 49.784 72.1144 49.272C72.1144 48.776 72.0184 48.304 71.8264 47.856C71.6504 47.408 71.3784 47.016 71.0104 46.68C70.6424 46.328 70.1864 46.056 69.6424 45.864C69.0984 45.656 68.4584 45.552 67.7224 45.552H64.6744V52.608C64.6904 52.816 64.7304 52.952 64.7944 53.016C64.8744 53.08 65.0104 53.112 65.2024 53.112H67.5064ZM77.4296 38.736C77.4296 38.24 77.3336 37.904 77.1416 37.728C76.9496 37.552 76.6056 37.448 76.1096 37.416C75.7896 37.384 75.6296 37.264 75.6296 37.056C75.6296 36.832 75.7816 36.72 76.0856 36.72H78.9896V52.464C78.9896 52.72 79.0216 52.896 79.0856 52.992C79.1656 53.072 79.3096 53.112 79.5176 53.112H80.3816C80.4616 53.112 80.5496 53.144 80.6456 53.208C80.7416 53.256 80.7896 53.368 80.7896 53.544C80.7896 53.72 80.7416 53.84 80.6456 53.904C80.5496 53.968 80.4616 54 80.3816 54H76.0616C75.9656 54 75.8696 53.968 75.7736 53.904C75.6776 53.84 75.6296 53.72 75.6296 53.544C75.6296 53.368 75.6776 53.256 75.7736 53.208C75.8696 53.144 75.9656 53.112 76.0616 53.112H76.9016C77.0776 53.112 77.2056 53.08 77.2856 53.016C77.3656 52.952 77.4136 52.816 77.4296 52.608V38.736ZM92.6723 44.256C92.6723 43.76 92.5763 43.424 92.3843 43.248C92.1923 43.056 91.8483 42.944 91.3523 42.912C91.0323 42.896 90.8723 42.784 90.8723 42.576C90.8723 42.48 90.9043 42.4 90.9683 42.336C91.0323 42.272 91.1523 42.24 91.3283 42.24H94.2323V51.984C94.2323 52.48 94.3283 52.816 94.5203 52.992C94.7123 53.168 95.0563 53.272 95.5523 53.304C95.8723 53.336 96.0323 53.456 96.0323 53.664C96.0323 53.888 95.8803 54 95.5763 54H93.2963C92.8803 54 92.6723 53.76 92.6723 53.28V52.296C92.2563 52.936 91.7283 53.448 91.0883 53.832C90.4643 54.2 89.7203 54.384 88.8563 54.384C88.1523 54.384 87.5203 54.264 86.9603 54.024C86.4003 53.784 85.9203 53.456 85.5203 53.04C85.1363 52.608 84.8403 52.112 84.6323 51.552C84.4243 50.992 84.3203 50.384 84.3203 49.728V44.256C84.3203 43.76 84.2243 43.424 84.0323 43.248C83.8403 43.056 83.4963 42.944 83.0003 42.912C82.6803 42.88 82.5203 42.768 82.5203 42.576C82.5203 42.352 82.6723 42.24 82.9763 42.24H85.8803V49.728C85.8803 50.848 86.1523 51.744 86.6963 52.416C87.2563 53.088 87.9763 53.424 88.8563 53.424C89.3523 53.424 89.8243 53.304 90.2723 53.064C90.7363 52.808 91.1443 52.472 91.4963 52.056C91.8483 51.624 92.1283 51.128 92.3363 50.568C92.5603 50.008 92.6723 49.424 92.6723 48.816V44.256ZM99.5546 48.528C99.6026 49.408 99.7626 50.16 100.035 50.784C100.323 51.408 100.667 51.92 101.067 52.32C101.483 52.72 101.923 53.016 102.387 53.208C102.867 53.384 103.323 53.472 103.755 53.472C104.171 53.472 104.547 53.416 104.883 53.304C105.219 53.192 105.515 53.056 105.771 52.896C106.027 52.72 106.243 52.544 106.419 52.368C106.595 52.192 106.739 52.032 106.851 51.888H108.363C108.267 52.048 108.107 52.272 107.883 52.56C107.675 52.832 107.379 53.104 106.995 53.376C106.627 53.648 106.171 53.88 105.627 54.072C105.099 54.28 104.475 54.384 103.755 54.384C103.019 54.384 102.299 54.248 101.595 53.976C100.907 53.688 100.291 53.272 99.7466 52.728C99.2186 52.184 98.7866 51.52 98.4506 50.736C98.1306 49.952 97.9706 49.064 97.9706 48.072C97.9706 47.176 98.1066 46.352 98.3786 45.6C98.6666 44.832 99.0586 44.176 99.5546 43.632C100.067 43.072 100.667 42.64 101.355 42.336C102.059 42.016 102.827 41.856 103.659 41.856C104.619 41.856 105.435 42.048 106.107 42.432C106.779 42.8 107.315 43.296 107.715 43.92C108.115 44.544 108.387 45.256 108.531 46.056C108.675 46.856 108.707 47.68 108.627 48.528H99.5546ZM107.139 47.616C107.155 46.752 107.059 46.016 106.851 45.408C106.643 44.8 106.363 44.296 106.011 43.896C105.675 43.496 105.299 43.208 104.883 43.032C104.467 42.84 104.059 42.744 103.659 42.744C103.083 42.744 102.555 42.872 102.075 43.128C101.595 43.368 101.171 43.712 100.803 44.16C100.451 44.592 100.163 45.104 99.9386 45.696C99.7306 46.288 99.6026 46.928 99.5546 47.616H107.139ZM112.638 38.736C112.638 38.24 112.542 37.904 112.35 37.728C112.158 37.552 111.814 37.448 111.318 37.416C110.998 37.384 110.838 37.264 110.838 37.056C110.838 36.832 110.99 36.72 111.294 36.72H113.646C113.838 36.72 113.99 36.776 114.102 36.888C114.23 37 114.318 37.12 114.366 37.248L119.814 51.72L125.31 37.248C125.374 37.12 125.47 37 125.598 36.888C125.726 36.776 125.87 36.72 126.03 36.72H128.358C128.662 36.72 128.814 36.832 128.814 37.056C128.814 37.264 128.654 37.384 128.334 37.416C127.838 37.448 127.494 37.552 127.302 37.728C127.11 37.904 127.014 38.24 127.014 38.736V52.464C127.014 52.72 127.046 52.896 127.11 52.992C127.19 53.072 127.326 53.112 127.518 53.112H128.382C128.462 53.112 128.55 53.144 128.646 53.208C128.758 53.256 128.814 53.368 128.814 53.544C128.814 53.72 128.758 53.84 128.646 53.904C128.55 53.968 128.462 54 128.382 54H124.086C123.99 54 123.894 53.968 123.798 53.904C123.702 53.84 123.654 53.72 123.654 53.544C123.654 53.368 123.702 53.256 123.798 53.208C123.894 53.144 123.99 53.112 124.086 53.112H124.926C125.102 53.112 125.23 53.08 125.31 53.016C125.39 52.952 125.438 52.816 125.454 52.608V39.984L120.366 53.28C120.302 53.408 120.198 53.504 120.054 53.568C119.926 53.632 119.782 53.664 119.622 53.664C119.478 53.664 119.334 53.632 119.19 53.568C119.062 53.504 118.966 53.408 118.902 53.28L114.198 40.968V52.464C114.198 52.72 114.23 52.896 114.294 52.992C114.374 53.072 114.518 53.112 114.726 53.112H115.59C115.67 53.112 115.758 53.144 115.854 53.208C115.95 53.256 115.998 53.368 115.998 53.544C115.998 53.72 115.95 53.84 115.854 53.904C115.758 53.968 115.67 54 115.59 54H111.27C111.174 54 111.078 53.968 110.982 53.904C110.886 53.84 110.838 53.72 110.838 53.544C110.838 53.368 110.886 53.256 110.982 53.208C111.078 53.144 111.174 53.112 111.27 53.112H112.11C112.286 53.112 112.414 53.08 112.494 53.016C112.574 52.952 112.622 52.816 112.638 52.608V38.736ZM139.323 45.72C139.323 43.768 138.411 42.792 136.587 42.792C135.627 42.792 134.843 42.992 134.235 43.392C133.643 43.792 133.347 44.4 133.347 45.216H131.787C131.787 44.656 131.907 44.168 132.147 43.752C132.387 43.32 132.715 42.968 133.131 42.696C133.547 42.408 134.043 42.2 134.619 42.072C135.211 41.928 135.851 41.856 136.539 41.856C137.915 41.856 138.979 42.168 139.731 42.792C140.499 43.416 140.883 44.376 140.883 45.672V52.464C140.883 52.72 140.915 52.896 140.979 52.992C141.059 53.072 141.195 53.112 141.387 53.112H142.251C142.347 53.112 142.443 53.144 142.539 53.208C142.635 53.256 142.683 53.368 142.683 53.544C142.683 53.72 142.635 53.84 142.539 53.904C142.443 53.968 142.347 54 142.251 54H140.043C139.563 54 139.323 53.76 139.323 53.28V52.272C138.843 52.992 138.235 53.528 137.499 53.88C136.779 54.216 135.963 54.384 135.051 54.384C133.755 54.384 132.747 54.096 132.027 53.52C131.323 52.928 130.971 52.104 130.971 51.048C130.971 50.456 131.091 49.912 131.331 49.416C131.571 48.904 131.939 48.464 132.435 48.096C132.947 47.728 133.587 47.44 134.355 47.232C135.123 47.008 136.027 46.896 137.067 46.896H139.323V45.72ZM137.067 47.832C136.251 47.832 135.555 47.928 134.979 48.12C134.403 48.296 133.931 48.536 133.563 48.84C133.211 49.128 132.955 49.464 132.795 49.848C132.635 50.232 132.555 50.624 132.555 51.024C132.555 51.824 132.779 52.424 133.227 52.824C133.675 53.224 134.283 53.424 135.051 53.424C135.643 53.424 136.195 53.336 136.707 53.16C137.235 52.968 137.691 52.688 138.075 52.32C138.459 51.936 138.763 51.472 138.987 50.928C139.211 50.384 139.323 49.752 139.323 49.032V47.832H137.067ZM147.779 52.464C147.779 52.72 147.811 52.896 147.875 52.992C147.955 53.072 148.099 53.112 148.307 53.112H149.171C149.251 53.112 149.339 53.144 149.435 53.208C149.531 53.256 149.579 53.368 149.579 53.544C149.579 53.72 149.531 53.84 149.435 53.904C149.339 53.968 149.251 54 149.171 54H144.851C144.755 54 144.659 53.968 144.563 53.904C144.467 53.84 144.419 53.72 144.419 53.544C144.419 53.368 144.467 53.256 144.563 53.208C144.659 53.144 144.755 53.112 144.851 53.112H145.691C145.867 53.112 145.995 53.08 146.075 53.016C146.155 52.952 146.203 52.816 146.219 52.608V44.256C146.219 43.76 146.123 43.424 145.931 43.248C145.739 43.056 145.395 42.944 144.899 42.912C144.579 42.88 144.419 42.768 144.419 42.576C144.419 42.352 144.571 42.24 144.875 42.24H147.155C147.571 42.24 147.779 42.472 147.779 42.936V44.064C148.243 43.392 148.851 42.856 149.603 42.456C150.371 42.056 151.331 41.856 152.483 41.856H154.307L154.595 44.208C154.579 44.4 154.523 44.576 154.427 44.736C154.331 44.896 154.219 44.976 154.091 44.976C153.963 44.976 153.843 44.936 153.731 44.856C153.635 44.776 153.563 44.656 153.515 44.496L153.227 43.296C153.147 42.928 152.979 42.744 152.723 42.744H152.483C151.779 42.744 151.131 42.864 150.539 43.104C149.963 43.344 149.467 43.672 149.051 44.088C148.651 44.488 148.339 44.96 148.115 45.504C147.891 46.032 147.779 46.592 147.779 47.184V52.464ZM161.352 47.688L159.24 49.656V52.464C159.24 52.72 159.272 52.896 159.336 52.992C159.416 53.072 159.56 53.112 159.768 53.112H160.632C160.712 53.112 160.8 53.144 160.896 53.208C160.992 53.256 161.04 53.368 161.04 53.544C161.04 53.72 160.992 53.84 160.896 53.904C160.8 53.968 160.712 54 160.632 54H156.312C156.216 54 156.12 53.968 156.024 53.904C155.928 53.84 155.88 53.72 155.88 53.544C155.88 53.368 155.928 53.256 156.024 53.208C156.12 53.144 156.216 53.112 156.312 53.112H157.152C157.328 53.112 157.456 53.08 157.536 53.016C157.616 52.952 157.664 52.816 157.68 52.608V38.736C157.68 38.24 157.584 37.904 157.392 37.728C157.2 37.552 156.856 37.448 156.36 37.416C156.04 37.384 155.88 37.264 155.88 37.056C155.88 36.832 156.032 36.72 156.336 36.72H159.24V48.288L163.704 44.088C163.88 43.928 164.024 43.792 164.136 43.68C164.248 43.552 164.288 43.424 164.256 43.296C164.224 43.184 164.128 43.104 163.968 43.056C163.824 42.992 163.568 42.944 163.2 42.912C162.88 42.896 162.72 42.784 162.72 42.576C162.72 42.48 162.752 42.4 162.816 42.336C162.88 42.272 163 42.24 163.176 42.24H167.424C167.6 42.24 167.712 42.272 167.76 42.336C167.824 42.4 167.856 42.48 167.856 42.576C167.856 42.672 167.824 42.752 167.76 42.816C167.696 42.88 167.576 42.912 167.4 42.912C166.984 42.912 166.648 42.992 166.392 43.152C166.136 43.296 165.856 43.504 165.552 43.776L162.36 46.752L166.752 52.464C166.896 52.656 167.04 52.816 167.184 52.944C167.328 53.056 167.528 53.112 167.784 53.112H168.12C168.216 53.112 168.312 53.144 168.408 53.208C168.504 53.256 168.552 53.368 168.552 53.544C168.552 53.72 168.504 53.84 168.408 53.904C168.312 53.968 168.216 54 168.12 54H163.848C163.752 54 163.656 53.968 163.56 53.904C163.464 53.84 163.416 53.72 163.416 53.544C163.416 53.368 163.464 53.256 163.56 53.208C163.656 53.144 163.752 53.112 163.848 53.112H164.76C164.936 53.112 165.072 53.048 165.168 52.92C165.264 52.792 165.256 52.656 165.144 52.512L161.352 47.688ZM171.648 48.528C171.696 49.408 171.856 50.16 172.128 50.784C172.416 51.408 172.76 51.92 173.16 52.32C173.576 52.72 174.016 53.016 174.48 53.208C174.96 53.384 175.416 53.472 175.848 53.472C176.264 53.472 176.64 53.416 176.976 53.304C177.312 53.192 177.608 53.056 177.864 52.896C178.12 52.72 178.336 52.544 178.512 52.368C178.688 52.192 178.832 52.032 178.944 51.888H180.456C180.36 52.048 180.2 52.272 179.976 52.56C179.768 52.832 179.472 53.104 179.088 53.376C178.72 53.648 178.264 53.88 177.72 54.072C177.192 54.28 176.568 54.384 175.848 54.384C175.112 54.384 174.392 54.248 173.688 53.976C173 53.688 172.384 53.272 171.84 52.728C171.312 52.184 170.88 51.52 170.544 50.736C170.224 49.952 170.064 49.064 170.064 48.072C170.064 47.176 170.2 46.352 170.472 45.6C170.76 44.832 171.152 44.176 171.648 43.632C172.16 43.072 172.76 42.64 173.448 42.336C174.152 42.016 174.92 41.856 175.752 41.856C176.712 41.856 177.528 42.048 178.2 42.432C178.872 42.8 179.408 43.296 179.808 43.92C180.208 44.544 180.48 45.256 180.624 46.056C180.768 46.856 180.8 47.68 180.72 48.528H171.648ZM179.232 47.616C179.248 46.752 179.152 46.016 178.944 45.408C178.736 44.8 178.456 44.296 178.104 43.896C177.768 43.496 177.392 43.208 176.976 43.032C176.56 42.84 176.152 42.744 175.752 42.744C175.176 42.744 174.648 42.872 174.168 43.128C173.688 43.368 173.264 43.712 172.896 44.16C172.544 44.592 172.256 45.104 172.032 45.696C171.824 46.288 171.696 46.928 171.648 47.616H179.232ZM188.044 54C186.844 54 185.956 53.728 185.38 53.184C184.82 52.624 184.54 51.656 184.54 50.28V43.128H182.716C182.636 43.128 182.54 43.104 182.428 43.056C182.332 42.992 182.284 42.872 182.284 42.696C182.284 42.52 182.332 42.4 182.428 42.336C182.54 42.272 182.636 42.24 182.716 42.24H184.54V38.112L186.1 37.872V42.24H188.86C188.94 42.24 189.028 42.272 189.124 42.336C189.236 42.4 189.292 42.52 189.292 42.696C189.292 42.872 189.236 42.992 189.124 43.056C189.028 43.104 188.94 43.128 188.86 43.128H186.1V50.664C186.1 51.128 186.148 51.512 186.244 51.816C186.34 52.12 186.476 52.36 186.652 52.536C186.828 52.712 187.028 52.832 187.252 52.896C187.492 52.96 187.756 52.992 188.044 52.992H188.956C189.084 52.992 189.212 53.032 189.34 53.112C189.468 53.192 189.532 53.32 189.532 53.496C189.532 53.656 189.476 53.784 189.364 53.88C189.252 53.96 189.116 54 188.956 54H188.044Z" fill="#6D6D6D"/>
<path d="M65.04 62.92V63.152C65.04 63.2907 64.9707 63.36 64.832 63.36H62.48V63C62.48 62.9467 62.5067 62.92 62.56 62.92H65.04ZM68.824 64.128C68.76 64.1707 68.696 64.1867 68.632 64.176C68.5733 64.16 68.536 64.1307 68.52 64.088C68.504 64.04 68.5307 63.992 68.6 63.944C68.872 63.7573 69.1253 63.5493 69.36 63.32C69.5947 63.0853 69.8 62.848 69.976 62.608C70.152 62.368 70.2933 62.144 70.4 61.936C70.512 61.728 70.5813 61.552 70.608 61.408C70.6187 61.344 70.6133 61.2933 70.592 61.256C70.5707 61.2133 70.5067 61.1813 70.4 61.16C70.3147 61.16 70.1973 61.1653 70.048 61.176C69.904 61.1867 69.7627 61.2 69.624 61.216C69.4853 61.232 69.3787 61.2507 69.304 61.272C69.208 61.2933 69.1387 61.3013 69.096 61.296C69.0587 61.2853 69.0187 61.2587 68.976 61.216C68.8693 61.1093 68.7947 61.0187 68.752 60.944C68.736 60.9173 68.7413 60.8853 68.768 60.848C68.8 60.8053 68.8347 60.7867 68.872 60.792C69.0267 60.8187 69.2 60.8373 69.392 60.848C69.5893 60.8587 69.7893 60.8613 69.992 60.856C70.1947 60.8507 70.3787 60.8427 70.544 60.832C70.832 60.8213 71.1253 60.7973 71.424 60.76C71.7227 60.7227 71.976 60.6773 72.184 60.624C72.2427 60.608 72.2853 60.608 72.312 60.624C72.3387 60.6347 72.3627 60.6533 72.384 60.68C72.4053 60.7173 72.4267 60.768 72.448 60.832C72.4747 60.896 72.488 60.9467 72.488 60.984C72.488 61.016 72.4693 61.0453 72.432 61.072C72.4 61.0987 72.376 61.112 72.36 61.112C72.1787 61.096 71.952 61.0907 71.68 61.096C71.4133 61.1013 71.112 61.1147 70.776 61.136C70.872 61.1627 70.952 61.2053 71.016 61.264C71.0853 61.3173 71.1173 61.3707 71.112 61.424C71.1013 61.6213 70.976 61.8987 70.736 62.256C71.04 62.48 71.32 62.664 71.576 62.808C71.8373 62.952 72.0533 63.056 72.224 63.12C72.2987 63.1627 72.3627 63.24 72.416 63.352C72.4693 63.4587 72.4933 63.5653 72.488 63.672C72.4773 63.7307 72.4347 63.7813 72.36 63.824C72.2853 63.8667 72.2427 63.8773 72.232 63.856C72.1413 63.7387 72.024 63.616 71.88 63.488C71.736 63.36 71.584 63.2347 71.424 63.112C71.264 62.984 71.1093 62.8667 70.96 62.76C70.816 62.648 70.6907 62.5547 70.584 62.48C70.3653 62.784 70.0987 63.088 69.784 63.392C69.4747 63.696 69.1547 63.9413 68.824 64.128ZM73.592 64.696C73.544 64.696 73.5147 64.6693 73.504 64.616C73.4933 64.5627 73.4827 64.4773 73.472 64.36C73.4667 64.2427 73.464 64.1227 73.464 64C73.464 63.8773 73.464 63.7813 73.464 63.712V60.2C73.464 60.04 73.456 59.9147 73.44 59.824C73.4293 59.7333 73.3973 59.656 73.344 59.592C73.2907 59.528 73.2 59.4587 73.072 59.384C73.0133 59.3413 73 59.2933 73.032 59.24C73.08 59.16 73.1413 59.12 73.216 59.12C73.296 59.12 73.4027 59.1493 73.536 59.208C73.6747 59.2667 73.7867 59.3227 73.872 59.376C73.936 59.4133 73.9653 59.464 73.96 59.528C73.944 59.6187 73.9333 59.7093 73.928 59.8C73.9227 59.8907 73.92 59.992 73.92 60.104V63.656C73.92 63.7307 73.9147 63.8267 73.904 63.944C73.8987 64.056 73.8853 64.1707 73.864 64.288C73.8427 64.4053 73.8107 64.504 73.768 64.584C73.7253 64.6587 73.6667 64.696 73.592 64.696ZM71.24 66.416C70.9733 66.416 70.776 66.3493 70.648 66.216C70.52 66.0827 70.456 65.8933 70.456 65.648V65.184C70.456 65.024 70.44 64.8987 70.408 64.808C70.376 64.7173 70.2907 64.6427 70.152 64.584C70.12 64.5733 70.0987 64.552 70.088 64.52C70.0827 64.488 70.0827 64.4587 70.088 64.432C70.1253 64.3253 70.1947 64.28 70.296 64.296C70.3813 64.3067 70.4773 64.336 70.584 64.384C70.6907 64.4267 70.784 64.472 70.864 64.52C70.9333 64.5627 70.9627 64.6053 70.952 64.648C70.9467 64.6853 70.9387 64.752 70.928 64.848C70.9173 64.9387 70.912 65.0267 70.912 65.112V65.608C70.912 65.7947 70.944 65.92 71.008 65.984C71.0773 66.0427 71.168 66.0773 71.28 66.088C71.3387 66.0933 71.4373 66.096 71.576 66.096C71.72 66.096 71.8773 66.0933 72.048 66.088C72.224 66.0827 72.392 66.0773 72.552 66.072C72.7173 66.0667 72.8507 66.0613 72.952 66.056C73.2293 66.04 73.464 66.0133 73.656 65.976C73.8533 65.9387 73.9973 65.9067 74.088 65.88C74.2053 65.8427 74.288 65.8587 74.336 65.928C74.3627 65.9707 74.392 66.0213 74.424 66.08C74.456 66.1387 74.4747 66.1867 74.48 66.224C74.4853 66.2613 74.4667 66.296 74.424 66.328C74.3867 66.3653 74.3573 66.384 74.336 66.384C74.1493 66.3733 73.9893 66.3653 73.856 66.36C73.7227 66.36 73.5813 66.36 73.432 66.36C73.2827 66.3653 73.0907 66.3733 72.856 66.384C72.584 66.3947 72.312 66.4027 72.04 66.408C71.768 66.4133 71.5013 66.416 71.24 66.416ZM70.344 60.112C70.2587 60.1013 70.1493 60.0827 70.016 60.056C69.888 60.024 69.768 59.984 69.656 59.936C69.544 59.888 69.4667 59.84 69.424 59.792C69.3973 59.76 69.3947 59.712 69.416 59.648C69.4373 59.584 69.4747 59.5573 69.528 59.568C69.784 59.6213 70.0453 59.656 70.312 59.672C70.5787 59.6827 70.8293 59.6827 71.064 59.672C71.2987 59.6613 71.488 59.6507 71.632 59.64C71.6693 59.6347 71.704 59.6507 71.736 59.688C71.768 59.72 71.7867 59.7467 71.792 59.768C71.7973 59.8107 71.7787 59.8613 71.736 59.92C71.6933 59.9733 71.648 60.008 71.6 60.024C71.5413 60.0507 71.44 60.0747 71.296 60.096C71.152 60.112 70.9947 60.1227 70.824 60.128C70.6533 60.128 70.4933 60.1227 70.344 60.112ZM76.0649 64.256C75.9583 64.288 75.8783 64.3013 75.8249 64.296C75.7716 64.2907 75.7103 64.2667 75.6409 64.224C75.6089 64.2027 75.5609 64.1733 75.4969 64.136C75.4383 64.0987 75.3849 64.064 75.3369 64.032C75.2889 63.9947 75.2596 63.9653 75.2489 63.944C75.2329 63.9173 75.2383 63.88 75.2649 63.832C75.2916 63.784 75.3236 63.76 75.3609 63.76C75.5529 63.7867 75.7583 63.8027 75.9769 63.808C76.1956 63.8133 76.3956 63.8133 76.5769 63.808C76.7423 63.7973 76.9023 63.7893 77.0569 63.784C77.2116 63.7733 77.3609 63.7627 77.5049 63.752L77.4809 63.12C77.2249 63.0987 77.0116 63.0347 76.8409 62.928C76.6703 62.8213 76.5423 62.696 76.4569 62.552C76.3769 62.408 76.3369 62.2667 76.3369 62.128C76.3369 61.984 76.3769 61.832 76.4569 61.672C76.5369 61.5067 76.6729 61.3653 76.8649 61.248C77.0569 61.1253 77.3183 61.0587 77.6489 61.048C78.1236 61.0373 78.4783 61.136 78.7129 61.344C78.9476 61.5467 79.0596 61.7893 79.0489 62.072C79.0436 62.2107 78.9983 62.3547 78.9129 62.504C78.8276 62.648 78.6996 62.776 78.5289 62.888C78.3636 62.9947 78.1529 63.0667 77.8969 63.104L77.8809 63.712C78.4409 63.6533 78.8943 63.592 79.2409 63.528C79.5929 63.4587 79.8356 63.408 79.9689 63.376C80.0436 63.3547 80.0916 63.3627 80.1129 63.4C80.1343 63.432 80.1316 63.4747 80.1049 63.528C80.0783 63.576 80.0276 63.616 79.9529 63.648C79.7556 63.7013 79.4196 63.7733 78.9449 63.864C78.4756 63.9493 77.8969 64.0293 77.2089 64.104C76.9956 64.1253 76.7876 64.1467 76.5849 64.168C76.3823 64.184 76.2089 64.2133 76.0649 64.256ZM80.5529 64.92C80.5049 64.92 80.4756 64.8933 80.4649 64.84C80.4543 64.7867 80.4436 64.7013 80.4329 64.584C80.4276 64.4667 80.4249 64.3467 80.4249 64.224C80.4249 64.096 80.4249 63.9973 80.4249 63.928V60.2C80.4249 60.04 80.4169 59.9147 80.4009 59.824C80.3903 59.7333 80.3583 59.656 80.3049 59.592C80.2516 59.528 80.1609 59.4587 80.0329 59.384C79.9743 59.3413 79.9609 59.2933 79.9929 59.24C80.0409 59.16 80.1023 59.12 80.1769 59.12C80.2569 59.12 80.3636 59.1493 80.4969 59.208C80.6356 59.2667 80.7476 59.3227 80.8329 59.376C80.8969 59.4133 80.9263 59.464 80.9209 59.528C80.9049 59.6187 80.8943 59.7093 80.8889 59.8C80.8836 59.8907 80.8809 59.992 80.8809 60.104V62.208C81.1583 62.208 81.3876 62.1893 81.5689 62.152C81.7503 62.1093 81.8836 62.0747 81.9689 62.048C82.0276 62.0267 82.0703 62.024 82.0969 62.04C82.1289 62.056 82.1556 62.0827 82.1769 62.12C82.1983 62.1573 82.2196 62.2107 82.2409 62.28C82.2676 62.3493 82.2809 62.4027 82.2809 62.44C82.2809 62.4667 82.2649 62.4933 82.2329 62.52C82.2009 62.5467 82.1769 62.56 82.1609 62.56C81.9423 62.5387 81.7289 62.5253 81.5209 62.52C81.3183 62.5093 81.1049 62.504 80.8809 62.504V63.872C80.8809 63.9413 80.8756 64.0347 80.8649 64.152C80.8596 64.2693 80.8463 64.3867 80.8249 64.504C80.8036 64.6213 80.7716 64.72 80.7289 64.8C80.6863 64.88 80.6276 64.92 80.5529 64.92ZM78.2009 66.464C77.9343 66.464 77.7369 66.408 77.6089 66.296C77.4809 66.184 77.4169 66.0053 77.4169 65.76V65.52C77.4169 65.3707 77.3956 65.248 77.3529 65.152C77.3156 65.056 77.2356 64.9813 77.1129 64.928C77.0809 64.9173 77.0596 64.896 77.0489 64.864C77.0383 64.832 77.0383 64.8027 77.0489 64.776C77.0863 64.6853 77.1556 64.6427 77.2569 64.648C77.3263 64.6587 77.4196 64.68 77.5369 64.712C77.6596 64.744 77.7583 64.784 77.8329 64.832C77.8969 64.8693 77.9236 64.9147 77.9129 64.968C77.9023 65.0053 77.8916 65.072 77.8809 65.168C77.8756 65.264 77.8729 65.3573 77.8729 65.448V65.72C77.8729 65.9067 77.9049 66.0213 77.9689 66.064C78.0329 66.1067 78.1236 66.1307 78.2409 66.136C78.3369 66.136 78.4596 66.136 78.6089 66.136C78.7636 66.136 78.9263 66.1333 79.0969 66.128C79.2729 66.1227 79.4383 66.1173 79.5929 66.112C79.7529 66.1067 79.8836 66.1013 79.9849 66.096C80.2676 66.08 80.5049 66.0533 80.6969 66.016C80.8943 65.9787 81.0383 65.9467 81.1289 65.92C81.2463 65.8827 81.3289 65.8987 81.3769 65.968C81.4036 66.0107 81.4329 66.0613 81.4649 66.12C81.4969 66.1787 81.5156 66.2267 81.5209 66.264C81.5263 66.3013 81.5076 66.336 81.4649 66.368C81.4276 66.4053 81.3983 66.424 81.3769 66.424C81.1903 66.4133 81.0303 66.4053 80.8969 66.4C80.7636 66.4 80.6196 66.4 80.4649 66.4C80.3156 66.4053 80.1236 66.4133 79.8889 66.424C79.6169 66.4293 79.3316 66.4373 79.0329 66.448C78.7396 66.4587 78.4623 66.464 78.2009 66.464ZM77.6809 62.792C77.9689 62.7813 78.1903 62.7093 78.3449 62.576C78.5049 62.4373 78.5876 62.2693 78.5929 62.072C78.6036 61.9493 78.5769 61.832 78.5129 61.72C78.4543 61.6027 78.3529 61.5093 78.2089 61.44C78.0703 61.3653 77.8836 61.3333 77.6489 61.344C77.3396 61.3653 77.1156 61.4507 76.9769 61.6C76.8436 61.7493 76.7769 61.92 76.7769 62.112C76.7769 62.288 76.8543 62.448 77.0089 62.592C77.1689 62.736 77.3929 62.8027 77.6809 62.792ZM76.1689 60.888C76.0783 60.904 76.0116 60.904 75.9689 60.888C75.9316 60.872 75.8943 60.8453 75.8569 60.808C75.8089 60.7653 75.7663 60.72 75.7289 60.672C75.6916 60.624 75.6649 60.5867 75.6489 60.56C75.6329 60.5333 75.6383 60.4987 75.6649 60.456C75.6916 60.4133 75.7236 60.3973 75.7609 60.408C75.9263 60.44 76.1263 60.464 76.3609 60.48C76.5956 60.4907 76.8276 60.496 77.0569 60.496C77.2916 60.4907 77.4863 60.4853 77.6409 60.48C78.0303 60.464 78.3609 60.44 78.6329 60.408C78.9049 60.376 79.1449 60.3307 79.3529 60.272C79.4116 60.256 79.4543 60.256 79.4809 60.272C79.5076 60.2827 79.5316 60.304 79.5529 60.336C79.5743 60.368 79.5929 60.416 79.6089 60.48C79.6303 60.5387 79.6409 60.5867 79.6409 60.624C79.6409 60.656 79.6223 60.6853 79.5849 60.712C79.5529 60.7387 79.5289 60.752 79.5129 60.752C79.2356 60.7307 78.9156 60.72 78.5529 60.72C78.1956 60.7147 77.8116 60.7253 77.4009 60.752C76.9956 60.7787 76.5849 60.824 76.1689 60.888ZM77.4329 59.976C77.3529 59.9653 77.2489 59.944 77.1209 59.912C76.9983 59.88 76.8809 59.8427 76.7689 59.8C76.6623 59.752 76.5903 59.7067 76.5529 59.664C76.5263 59.632 76.5236 59.5867 76.5449 59.528C76.5663 59.4693 76.6036 59.4453 76.6569 59.456C76.8916 59.504 77.1396 59.536 77.4009 59.552C77.6623 59.5627 77.9049 59.5627 78.1289 59.552C78.3529 59.5413 78.5263 59.5307 78.6489 59.52C78.6863 59.5147 78.7183 59.5307 78.7449 59.568C78.7769 59.6 78.7956 59.6293 78.8009 59.656C78.8063 59.6987 78.7876 59.7493 78.7449 59.808C78.7076 59.8613 78.6676 59.8933 78.6249 59.904C78.5769 59.92 78.4836 59.936 78.3449 59.952C78.2116 59.968 78.0623 59.9787 77.8969 59.984C77.7316 59.9893 77.5769 59.9867 77.4329 59.976ZM86.7884 66.656C86.4684 66.656 86.1857 66.5973 85.9404 66.48C85.7004 66.368 85.511 66.2107 85.3724 66.008C85.2337 65.8107 85.1644 65.5813 85.1644 65.32C85.1644 65.064 85.239 64.8347 85.3884 64.632C85.5377 64.424 85.7377 64.2613 85.9884 64.144C86.239 64.0213 86.5137 63.96 86.8124 63.96C87.1164 63.96 87.391 64.0107 87.6364 64.112C87.887 64.2133 88.087 64.3627 88.2364 64.56C88.3857 64.7573 88.455 65 88.4444 65.288C88.4444 65.5547 88.3697 65.792 88.2204 66C88.071 66.208 87.871 66.368 87.6204 66.48C87.3697 66.5973 87.0924 66.656 86.7884 66.656ZM86.7964 66.296C87.127 66.296 87.4017 66.208 87.6204 66.032C87.8444 65.856 87.9617 65.6053 87.9724 65.28C87.983 65.072 87.935 64.896 87.8284 64.752C87.7217 64.6027 87.5777 64.4907 87.3964 64.416C87.2204 64.336 87.023 64.296 86.8044 64.296C86.5804 64.296 86.3804 64.3413 86.2044 64.432C86.0284 64.5173 85.887 64.6373 85.7804 64.792C85.679 64.9467 85.6284 65.12 85.6284 65.312C85.6284 65.616 85.7377 65.856 85.9564 66.032C86.1804 66.208 86.4604 66.296 86.7964 66.296ZM88.0684 63.856C88.0204 63.856 87.991 63.8293 87.9804 63.776C87.9697 63.7227 87.959 63.6427 87.9484 63.536C87.943 63.424 87.9404 63.3093 87.9404 63.192C87.9404 63.0747 87.9404 62.9813 87.9404 62.912V62.688L87.4684 62.712C87.303 62.7173 87.1484 62.728 87.0044 62.744C86.8657 62.76 86.7164 62.7867 86.5564 62.824C86.4977 62.8347 86.4497 62.84 86.4124 62.84C86.3804 62.8347 86.343 62.8187 86.3004 62.792C86.2577 62.7653 86.2017 62.728 86.1324 62.68C86.063 62.6267 86.023 62.5867 86.0124 62.56C86.0017 62.528 86.0097 62.4933 86.0364 62.456C86.063 62.4187 86.095 62.4027 86.1324 62.408C86.2817 62.4293 86.4497 62.4427 86.6364 62.448C86.823 62.4533 87.079 62.4453 87.4044 62.424L87.9404 62.392V61.144L87.5484 61.152C87.399 61.1573 87.2764 61.1653 87.1804 61.176C87.0844 61.1867 86.967 61.2027 86.8284 61.224C86.775 61.2347 86.7297 61.2427 86.6924 61.248C86.655 61.248 86.615 61.2373 86.5724 61.216C86.5297 61.1947 86.4737 61.1627 86.4044 61.12C86.3404 61.0773 86.303 61.0427 86.2924 61.016C86.2764 60.984 86.2817 60.9467 86.3084 60.904C86.3404 60.856 86.3777 60.8373 86.4204 60.848C86.543 60.8693 86.6817 60.8853 86.8364 60.896C86.991 60.9013 87.215 60.896 87.5084 60.88L87.9404 60.856V60.184C87.9404 60.024 87.9324 59.8987 87.9164 59.808C87.9057 59.7173 87.871 59.64 87.8124 59.576C87.759 59.512 87.6684 59.4427 87.5404 59.368C87.487 59.3307 87.4737 59.2827 87.5004 59.224C87.5484 59.144 87.6124 59.104 87.6924 59.104C87.7724 59.104 87.879 59.1333 88.0124 59.192C88.1457 59.2507 88.255 59.3067 88.3404 59.36C88.367 59.376 88.391 59.3973 88.4124 59.424C88.4337 59.4507 88.4417 59.48 88.4364 59.512C88.4204 59.6027 88.4097 59.6933 88.4044 59.784C88.399 59.8747 88.3964 59.976 88.3964 60.088V62.856C88.3964 62.936 88.391 63.032 88.3804 63.144C88.375 63.256 88.359 63.368 88.3324 63.48C88.311 63.5867 88.279 63.6773 88.2364 63.752C88.1937 63.8213 88.1377 63.856 88.0684 63.856ZM83.1724 63.992C83.1084 64.024 83.039 64.0373 82.9644 64.032C82.8897 64.0267 82.839 64.0053 82.8124 63.968C82.7857 63.9253 82.8097 63.8773 82.8844 63.824C83.0657 63.728 83.271 63.5973 83.5004 63.432C83.7297 63.2613 83.9617 63.0667 84.1964 62.848C84.431 62.624 84.655 62.384 84.8684 62.128C85.0817 61.872 85.2657 61.6107 85.4204 61.344C85.5804 61.072 85.695 60.8053 85.7644 60.544C85.7804 60.4907 85.7777 60.4613 85.7564 60.456C85.7404 60.4453 85.7244 60.44 85.7084 60.44C85.703 60.44 85.7004 60.44 85.7004 60.44C85.5777 60.44 85.423 60.448 85.2364 60.464C85.0497 60.48 84.895 60.4933 84.7724 60.504C84.543 60.5253 84.351 60.544 84.1964 60.56C84.0417 60.576 83.8844 60.5973 83.7244 60.624C83.559 60.6507 83.4364 60.632 83.3564 60.568C83.2337 60.4667 83.1537 60.3813 83.1164 60.312C83.1057 60.2853 83.111 60.2507 83.1324 60.208C83.159 60.16 83.191 60.1387 83.2284 60.144C83.383 60.1707 83.5724 60.1893 83.7964 60.2C84.0257 60.2107 84.2657 60.2107 84.5164 60.2C84.751 60.1893 84.9857 60.1733 85.2204 60.152C85.455 60.1253 85.6417 60.0827 85.7804 60.024C85.823 60.008 85.8657 60.008 85.9084 60.024L86.3644 60.208C86.3857 60.2187 86.4017 60.2347 86.4124 60.256C86.4284 60.2773 86.4284 60.3067 86.4124 60.344C86.3964 60.3653 86.3697 60.416 86.3324 60.496C86.3004 60.5707 86.2657 60.648 86.2284 60.728C86.1964 60.8027 86.1697 60.8613 86.1484 60.904C85.9777 61.272 85.767 61.6187 85.5164 61.944C85.2657 62.2693 84.999 62.5653 84.7164 62.832C84.439 63.0933 84.1644 63.3227 83.8924 63.52C83.6257 63.7173 83.3857 63.8747 83.1724 63.992ZM92.3219 63.408C92.2632 63.44 92.2019 63.4427 92.1379 63.416C92.0739 63.3893 92.0419 63.3547 92.0419 63.312C92.0419 63.28 92.0632 63.2507 92.1059 63.224C92.3032 63.1013 92.5085 62.9387 92.7219 62.736C92.9405 62.5333 93.1512 62.3093 93.3539 62.064C93.5565 61.8187 93.7379 61.568 93.8979 61.312C94.0632 61.056 94.1912 60.808 94.2819 60.568C94.2872 60.5573 94.2925 60.544 94.2979 60.528C94.3405 60.4 94.3672 60.2773 94.3779 60.16C94.3939 60.0427 94.3459 59.952 94.2339 59.888C94.1592 59.8453 94.1405 59.792 94.1779 59.728C94.2419 59.6107 94.3379 59.5787 94.4659 59.632C94.5405 59.6587 94.6259 59.7013 94.7219 59.76C94.8179 59.8187 94.8872 59.8667 94.9299 59.904C94.9725 59.936 95.0072 59.9733 95.0339 60.016C95.0605 60.0587 95.0685 60.0907 95.0579 60.112C94.9992 60.208 94.9432 60.3147 94.8899 60.432C94.8365 60.544 94.7805 60.656 94.7219 60.768C94.6845 60.848 94.6419 60.928 94.5939 61.008C94.5512 61.088 94.5059 61.1653 94.4579 61.24C94.7885 61.5227 95.0845 61.7493 95.3459 61.92C95.6072 62.0853 95.8285 62.2107 96.0099 62.296C96.0845 62.3493 96.1432 62.44 96.1859 62.568C96.2339 62.6907 96.2499 62.8053 96.2339 62.912C96.2285 62.9547 96.2019 62.992 96.1539 63.024C96.1112 63.0507 96.0685 63.0693 96.0259 63.08C95.9832 63.0853 95.9592 63.0827 95.9539 63.072C95.8632 62.9493 95.7459 62.8133 95.6019 62.664C95.4579 62.5147 95.3059 62.3653 95.1459 62.216C94.9859 62.0667 94.8312 61.928 94.6819 61.8C94.5379 61.6667 94.4152 61.5573 94.3139 61.472C94.1379 61.728 93.9379 61.984 93.7139 62.24C93.4899 62.4907 93.2579 62.7173 93.0179 62.92C92.7832 63.1227 92.5512 63.2853 92.3219 63.408ZM97.4979 66.688C97.4552 66.6987 97.4259 66.6907 97.4099 66.664C97.3939 66.6427 97.3832 66.6213 97.3779 66.6C97.3565 66.504 97.3432 66.3973 97.3379 66.28C97.3379 66.168 97.3379 66.0587 97.3379 65.952V64.464C97.3379 64.3893 97.3192 64.352 97.2819 64.352C97.2499 64.352 97.1725 64.3547 97.0499 64.36C96.9325 64.3653 96.7939 64.3733 96.6339 64.384C96.4739 64.3893 96.3112 64.3973 96.1459 64.408C95.9859 64.4187 95.8499 64.4293 95.7379 64.44C95.3859 64.4667 95.0845 64.4907 94.8339 64.512C94.5885 64.5333 94.3859 64.5573 94.2259 64.584C94.1299 64.6053 94.0445 64.592 93.9699 64.544C93.9272 64.5173 93.8712 64.4747 93.8019 64.416C93.7379 64.352 93.7005 64.3067 93.6899 64.28C93.6792 64.248 93.6899 64.208 93.7219 64.16C93.7539 64.112 93.7885 64.0933 93.8259 64.104C93.9485 64.136 94.1592 64.1573 94.4579 64.168C94.7619 64.1787 95.1245 64.1733 95.5459 64.152C95.8019 64.1413 96.0499 64.128 96.2899 64.112C96.5299 64.0907 96.7379 64.0667 96.9139 64.04C97.0899 64.0133 97.2072 63.9867 97.2659 63.96C97.3032 63.944 97.3432 63.9387 97.3859 63.944C97.4605 63.96 97.5352 63.9733 97.6099 63.984C97.6899 63.9947 97.7592 64.0053 97.8179 64.016C97.8712 64.0213 97.8899 64.0613 97.8739 64.136C97.8685 64.168 97.8605 64.224 97.8499 64.304C97.8445 64.3787 97.8392 64.456 97.8339 64.536C97.8285 64.616 97.8259 64.6827 97.8259 64.736L97.8099 65.832C97.8099 65.9333 97.7992 66.0453 97.7779 66.168C97.7565 66.296 97.7245 66.408 97.6819 66.504C97.6392 66.6053 97.5779 66.6667 97.4979 66.688ZM97.5139 63.528C97.4659 63.528 97.4365 63.5013 97.4259 63.448C97.4152 63.3947 97.4045 63.3147 97.3939 63.208C97.3885 63.1013 97.3859 62.992 97.3859 62.88C97.3859 62.7627 97.3859 62.6693 97.3859 62.6V60.2C97.3859 60.04 97.3779 59.9147 97.3619 59.824C97.3512 59.7333 97.3165 59.656 97.2579 59.592C97.2045 59.528 97.1139 59.4587 96.9859 59.384C96.9325 59.3467 96.9192 59.2987 96.9459 59.24C96.9939 59.16 97.0579 59.12 97.1379 59.12C97.2179 59.12 97.3245 59.1493 97.4579 59.208C97.5912 59.2667 97.7005 59.3227 97.7859 59.376C97.8125 59.392 97.8365 59.4133 97.8579 59.44C97.8792 59.4667 97.8872 59.496 97.8819 59.528C97.8659 59.6187 97.8552 59.7093 97.8499 59.8C97.8445 59.8907 97.8419 59.992 97.8419 60.104V62.544C97.8419 62.624 97.8365 62.72 97.8259 62.832C97.8205 62.9387 97.8045 63.0453 97.7779 63.152C97.7565 63.2587 97.7245 63.3493 97.6819 63.424C97.6392 63.4933 97.5832 63.528 97.5139 63.528ZM104.891 66.168C104.853 66.184 104.824 66.1813 104.803 66.16C104.781 66.144 104.768 66.128 104.763 66.112C104.752 66.0693 104.741 65.9893 104.731 65.872C104.72 65.7547 104.712 65.6267 104.707 65.488C104.707 65.3493 104.707 65.2267 104.707 65.12V62.512C104.589 62.512 104.451 62.512 104.291 62.512C104.136 62.512 103.952 62.5147 103.739 62.52V64.832C103.739 64.944 103.733 65.08 103.723 65.24C103.712 65.4 103.688 65.544 103.651 65.672C103.613 65.8 103.557 65.8747 103.483 65.896C103.44 65.912 103.408 65.912 103.387 65.896C103.365 65.8747 103.352 65.856 103.347 65.84C103.336 65.7973 103.325 65.7173 103.315 65.6C103.309 65.4827 103.304 65.3547 103.299 65.216C103.299 65.0773 103.299 64.9547 103.299 64.848V60.672C103.299 60.6507 103.299 60.632 103.299 60.616C103.299 60.6 103.299 60.5813 103.299 60.56C103.299 60.352 103.285 60.1867 103.259 60.064C103.232 59.936 103.136 59.8213 102.971 59.72C102.907 59.6773 102.893 59.6293 102.931 59.576C102.963 59.5227 102.995 59.488 103.027 59.472C103.064 59.456 103.104 59.4507 103.147 59.456C103.243 59.4667 103.347 59.5093 103.459 59.584C103.576 59.6533 103.651 59.704 103.683 59.736C103.709 59.7627 103.731 59.7893 103.747 59.816C103.768 59.8373 103.776 59.8613 103.771 59.888C103.755 59.9893 103.744 60.1013 103.739 60.224C103.739 60.3413 103.739 60.456 103.739 60.568C103.739 60.5893 103.739 60.6107 103.739 60.632C103.739 60.648 103.739 60.664 103.739 60.68V62.184C103.861 62.184 104.011 62.1813 104.187 62.176C104.368 62.1707 104.541 62.16 104.707 62.144V60.232C104.707 60.2213 104.707 60.2027 104.707 60.176C104.707 60.0267 104.701 59.9093 104.691 59.824C104.68 59.7387 104.651 59.6667 104.603 59.608C104.555 59.544 104.469 59.4747 104.347 59.4C104.288 59.3573 104.275 59.3093 104.307 59.256C104.365 59.16 104.437 59.12 104.523 59.136C104.619 59.152 104.725 59.192 104.843 59.256C104.96 59.3147 105.048 59.368 105.107 59.416C105.133 59.4427 105.155 59.4693 105.171 59.496C105.192 59.5173 105.2 59.544 105.195 59.576C105.179 59.688 105.168 59.7947 105.163 59.896C105.157 59.9973 105.155 60.112 105.155 60.24V65.104C105.155 65.216 105.147 65.352 105.131 65.512C105.12 65.672 105.096 65.816 105.059 65.944C105.021 66.072 104.965 66.1467 104.891 66.168ZM99.4188 64.28C99.3601 64.328 99.2961 64.3493 99.2268 64.344C99.1575 64.3387 99.1121 64.3147 99.0908 64.272C99.0695 64.2293 99.0935 64.1787 99.1628 64.12C99.4828 63.848 99.7601 63.5573 99.9948 63.248C100.229 62.9387 100.427 62.6373 100.587 62.344C100.747 62.0453 100.867 61.776 100.947 61.536C101.032 61.2907 101.08 61.1013 101.091 60.968C101.096 60.9093 101.08 60.856 101.043 60.808C101.011 60.76 100.936 60.7333 100.819 60.728C100.717 60.7387 100.587 60.752 100.427 60.768C100.267 60.784 100.136 60.8053 100.035 60.832C99.9441 60.8533 99.8801 60.856 99.8428 60.84C99.8055 60.8187 99.7708 60.7947 99.7388 60.768C99.7335 60.7627 99.7308 60.76 99.7308 60.76C99.6881 60.7227 99.6401 60.6747 99.5868 60.616C99.5335 60.5573 99.5041 60.5227 99.4988 60.512C99.4828 60.4853 99.4881 60.4507 99.5148 60.408C99.5468 60.3653 99.5815 60.3467 99.6188 60.352C99.8641 60.3893 100.091 60.4107 100.299 60.416C100.507 60.416 100.728 60.4107 100.963 60.4C101.549 60.3733 102.045 60.3093 102.451 60.208C102.509 60.192 102.552 60.192 102.579 60.208C102.611 60.2187 102.635 60.2427 102.651 60.28C102.672 60.3173 102.691 60.368 102.707 60.432C102.728 60.4907 102.739 60.5387 102.739 60.576C102.739 60.608 102.72 60.6373 102.683 60.664C102.651 60.6853 102.629 60.696 102.619 60.696C102.421 60.6853 102.227 60.68 102.035 60.68C101.848 60.68 101.595 60.6853 101.275 60.696C101.371 60.728 101.453 60.7733 101.523 60.832C101.592 60.8853 101.621 60.936 101.611 60.984C101.589 61.112 101.544 61.2747 101.475 61.472C101.405 61.664 101.309 61.88 101.187 62.12C101.496 62.424 101.763 62.6613 101.987 62.832C102.211 62.9973 102.408 63.1387 102.579 63.256C102.648 63.3093 102.693 63.4053 102.715 63.544C102.741 63.6773 102.739 63.7973 102.707 63.904C102.696 63.936 102.664 63.9627 102.611 63.984C102.563 64 102.515 64.0107 102.467 64.016C102.424 64.0213 102.4 64.0187 102.395 64.008C102.283 63.816 102.144 63.6213 101.979 63.424C101.819 63.2213 101.656 63.0293 101.491 62.848C101.325 62.6667 101.176 62.5093 101.043 62.376C100.856 62.7013 100.627 63.032 100.355 63.368C100.088 63.704 99.7761 64.008 99.4188 64.28ZM108.22 63.088C108.108 63.088 108.015 63.0373 107.94 62.936C107.871 62.8293 107.836 62.688 107.836 62.512V61.872C107.836 61.7973 107.817 61.7467 107.78 61.72C107.721 61.6933 107.66 61.6613 107.596 61.624C107.537 61.5813 107.5 61.5467 107.484 61.52C107.468 61.4933 107.473 61.448 107.5 61.384C107.532 61.32 107.567 61.2933 107.604 61.304C107.695 61.3253 107.793 61.3413 107.9 61.352C108.007 61.3573 108.127 61.3627 108.26 61.368C108.335 61.368 108.463 61.368 108.644 61.368C108.825 61.3627 109.033 61.3573 109.268 61.352C109.508 61.3413 109.748 61.3333 109.988 61.328C110.228 61.3173 110.444 61.3067 110.636 61.296C110.828 61.28 110.967 61.2667 111.052 61.256C111.063 61.2187 111.076 61.1387 111.092 61.016C111.113 60.888 111.132 60.7547 111.148 60.616C111.164 60.472 111.172 60.36 111.172 60.28C111.172 60.2373 111.164 60.2133 111.148 60.208C111.132 60.1973 111.119 60.192 111.108 60.192C111.092 60.192 110.959 60.2 110.708 60.216C110.463 60.232 110.14 60.248 109.74 60.264C109.367 60.28 109.036 60.2987 108.748 60.32C108.465 60.3413 108.247 60.3707 108.092 60.408C107.991 60.4347 107.903 60.424 107.828 60.376C107.785 60.344 107.729 60.2987 107.66 60.24C107.596 60.176 107.559 60.1307 107.548 60.104C107.537 60.0773 107.548 60.04 107.58 59.992C107.617 59.9387 107.652 59.9173 107.684 59.928C107.748 59.9493 107.852 59.968 107.996 59.984C108.145 59.9947 108.311 60.0027 108.492 60.008C108.679 60.008 108.86 60.008 109.036 60.008C109.212 60.0027 109.364 59.9973 109.492 59.992C109.684 59.9813 109.884 59.9707 110.092 59.96C110.305 59.944 110.505 59.9253 110.692 59.904C110.879 59.8773 111.028 59.848 111.14 59.816C111.177 59.7947 111.225 59.792 111.284 59.808L111.7 59.944C111.769 59.9653 111.785 60.008 111.748 60.072C111.737 60.0933 111.716 60.152 111.684 60.248C111.652 60.344 111.615 60.456 111.572 60.584C111.535 60.712 111.5 60.832 111.468 60.944C111.436 61.056 111.415 61.1387 111.404 61.192C111.452 61.2133 111.508 61.248 111.572 61.296C111.636 61.3387 111.668 61.376 111.668 61.408C111.668 61.4453 111.649 61.488 111.612 61.536C111.575 61.584 111.548 61.608 111.532 61.608C111.463 61.6027 111.332 61.6 111.14 61.6C110.948 61.6 110.721 61.6027 110.46 61.608C110.204 61.608 109.937 61.6133 109.66 61.624C109.388 61.6293 109.132 61.64 108.892 61.656C108.652 61.6667 108.457 61.6773 108.308 61.688V62.448C108.308 62.5547 108.319 62.6347 108.34 62.688C108.361 62.7413 108.425 62.7707 108.532 62.776C108.793 62.7867 109.049 62.7893 109.3 62.784C109.551 62.7733 109.825 62.76 110.124 62.744C110.444 62.7333 110.737 62.7147 111.004 62.688C111.276 62.656 111.476 62.6187 111.604 62.576C111.673 62.5547 111.724 62.5467 111.756 62.552C111.788 62.5573 111.82 62.5813 111.852 62.624C111.884 62.6613 111.911 62.704 111.932 62.752C111.959 62.8 111.977 62.8427 111.988 62.88C111.999 62.9173 111.98 62.9547 111.932 62.992C111.889 63.024 111.857 63.04 111.836 63.04C111.559 63.0293 111.295 63.024 111.044 63.024C110.793 63.024 110.492 63.0293 110.14 63.04C109.927 63.0453 109.7 63.0533 109.46 63.064C109.225 63.0693 108.999 63.0747 108.78 63.08C108.567 63.0853 108.38 63.088 108.22 63.088ZM107.084 65.256C106.988 65.2773 106.924 65.2853 106.892 65.28C106.86 65.2693 106.817 65.2453 106.764 65.208C106.732 65.1867 106.689 65.152 106.636 65.104C106.583 65.056 106.535 65.0107 106.492 64.968C106.449 64.92 106.423 64.8853 106.412 64.864C106.396 64.8373 106.404 64.8 106.436 64.752C106.473 64.704 106.511 64.6853 106.548 64.696C106.719 64.7333 106.908 64.7627 107.116 64.784C107.329 64.8 107.577 64.8053 107.86 64.8C107.903 64.8 107.943 64.8 107.98 64.8C108.023 64.8 108.065 64.8 108.108 64.8C108.193 64.8 108.279 64.8027 108.364 64.808C108.449 64.808 108.537 64.8053 108.628 64.8L108.62 64.48C108.604 64.2773 108.577 64.112 108.54 63.984C108.503 63.856 108.412 63.7547 108.268 63.68C108.215 63.6427 108.199 63.5973 108.22 63.544C108.247 63.4853 108.281 63.4507 108.324 63.44C108.372 63.424 108.42 63.4213 108.468 63.432C108.527 63.4427 108.599 63.4667 108.684 63.504C108.769 63.5413 108.841 63.5813 108.9 63.624C108.985 63.688 109.028 63.7467 109.028 63.8C109.017 63.8373 109.007 63.92 108.996 64.048C108.991 64.176 108.988 64.312 108.988 64.456V64.8C109.276 64.7947 109.564 64.7893 109.852 64.784C110.145 64.7787 110.444 64.7707 110.748 64.76L110.804 64.248C110.804 64.2427 110.804 64.2347 110.804 64.224C110.82 64.0693 110.823 63.9333 110.812 63.816C110.801 63.6987 110.735 63.6 110.612 63.52C110.553 63.488 110.543 63.4373 110.58 63.368C110.644 63.2773 110.724 63.2533 110.82 63.296C110.868 63.3067 110.943 63.3413 111.044 63.4C111.145 63.4533 111.217 63.496 111.26 63.528C111.319 63.5867 111.345 63.6373 111.34 63.68C111.319 63.76 111.297 63.8427 111.276 63.928C111.26 64.0133 111.241 64.1093 111.22 64.216L111.124 64.752C111.215 64.752 111.335 64.7467 111.484 64.736C111.639 64.7253 111.799 64.712 111.964 64.696C112.129 64.6747 112.281 64.6533 112.42 64.632C112.564 64.6053 112.671 64.5787 112.74 64.552C112.799 64.536 112.844 64.536 112.876 64.552C112.908 64.5627 112.94 64.5893 112.972 64.632C113.004 64.6747 113.036 64.7307 113.068 64.8C113.105 64.864 113.124 64.9173 113.124 64.96C113.124 64.9973 113.105 65.0293 113.068 65.056C113.031 65.0827 113.001 65.096 112.98 65.096C112.735 65.0747 112.457 65.064 112.148 65.064C111.844 65.0587 111.567 65.056 111.316 65.056C110.996 65.0613 110.649 65.0693 110.276 65.08C109.903 65.0853 109.535 65.0907 109.172 65.096C108.815 65.1013 108.489 65.112 108.196 65.128C107.961 65.1387 107.756 65.1547 107.58 65.176C107.404 65.1973 107.239 65.224 107.084 65.256ZM117.084 63.984C117.03 64 116.988 63.984 116.956 63.936C116.924 63.8827 116.902 63.816 116.892 63.736L116.724 61.328C116.713 61.152 116.681 61.016 116.628 60.92C116.574 60.824 116.476 60.7413 116.332 60.672C116.278 60.6453 116.265 60.6 116.292 60.536C116.329 60.44 116.401 60.3973 116.508 60.408C116.55 60.4187 116.612 60.4347 116.692 60.456C116.772 60.472 116.849 60.4933 116.924 60.52C117.041 60.5253 117.204 60.528 117.412 60.528C117.625 60.528 117.846 60.5253 118.076 60.52C118.305 60.5093 118.508 60.4987 118.684 60.488C118.854 60.4773 118.988 60.4613 119.084 60.44C119.185 60.4133 119.265 60.3867 119.324 60.36C119.366 60.344 119.409 60.344 119.452 60.36C119.51 60.3813 119.574 60.4053 119.644 60.432C119.713 60.4533 119.785 60.4747 119.86 60.496C119.881 60.5067 119.9 60.5227 119.916 60.544C119.937 60.5653 119.94 60.5947 119.924 60.632C119.897 60.6907 119.868 60.7947 119.836 60.944C119.809 61.088 119.782 61.264 119.756 61.472L119.54 63.16C119.582 63.192 119.638 63.24 119.708 63.304C119.777 63.3627 119.812 63.4107 119.812 63.448C119.812 63.4907 119.793 63.5307 119.756 63.568C119.718 63.6 119.692 63.616 119.676 63.616C119.537 63.616 119.366 63.616 119.164 63.616C118.961 63.616 118.745 63.6187 118.516 63.624C118.286 63.624 118.065 63.6267 117.852 63.632C117.638 63.6373 117.452 63.6427 117.292 63.648C117.286 63.744 117.262 63.8213 117.22 63.88C117.177 63.9333 117.132 63.968 117.084 63.984ZM117.276 63.32C117.334 63.32 117.444 63.32 117.604 63.32C117.769 63.3147 117.953 63.3093 118.156 63.304C118.364 63.2933 118.564 63.2827 118.756 63.272C118.948 63.2613 119.1 63.248 119.212 63.232C119.233 62.7307 119.254 62.2747 119.276 61.864C119.297 61.448 119.308 61.12 119.308 60.88C119.308 60.8373 119.3 60.8133 119.284 60.808C119.273 60.7973 119.262 60.792 119.252 60.792C119.145 60.792 119.004 60.7947 118.828 60.8C118.657 60.8 118.473 60.8027 118.276 60.808C118.078 60.8133 117.881 60.8213 117.684 60.832C117.492 60.8373 117.324 60.8427 117.18 60.848L117.276 63.32ZM121.244 66.176C121.185 66.176 121.153 66.1493 121.148 66.096C121.142 66.0533 121.134 65.976 121.124 65.864C121.118 65.7467 121.113 65.6213 121.108 65.488C121.102 65.3493 121.1 65.2293 121.1 65.128V60.224C121.1 60.0587 121.092 59.9307 121.076 59.84C121.065 59.7493 121.03 59.6747 120.972 59.616C120.918 59.552 120.822 59.4853 120.684 59.416C120.641 59.3893 120.62 59.3627 120.62 59.336C120.62 59.3093 120.638 59.2747 120.676 59.232C120.713 59.184 120.753 59.16 120.796 59.16C120.86 59.16 120.94 59.176 121.036 59.208C121.132 59.24 121.225 59.2773 121.316 59.32C121.406 59.3573 121.473 59.392 121.516 59.424C121.58 59.472 121.609 59.5253 121.604 59.584C121.588 59.696 121.574 59.8 121.564 59.896C121.558 59.992 121.556 60.104 121.556 60.232V62.416C121.838 62.416 122.086 62.3947 122.3 62.352C122.518 62.304 122.67 62.2667 122.756 62.24C122.814 62.2187 122.857 62.216 122.884 62.232C122.91 62.248 122.934 62.272 122.956 62.304C122.982 62.3413 123.009 62.3973 123.036 62.472C123.068 62.5467 123.084 62.6027 123.084 62.64C123.084 62.672 123.065 62.7013 123.028 62.728C122.996 62.7547 122.972 62.768 122.956 62.768C122.758 62.7413 122.553 62.728 122.34 62.728C122.132 62.7227 121.921 62.72 121.708 62.72C121.681 62.72 121.654 62.72 121.628 62.72C121.606 62.72 121.582 62.72 121.556 62.72V65.112C121.556 65.1973 121.55 65.3013 121.54 65.424C121.534 65.5413 121.521 65.6587 121.5 65.776C121.478 65.888 121.446 65.9813 121.404 66.056C121.366 66.136 121.313 66.176 121.244 66.176ZM124.091 64.088C124.022 64.1307 123.95 64.1493 123.875 64.144C123.806 64.1387 123.76 64.1173 123.739 64.08C123.723 64.0427 123.755 64 123.835 63.952C124.048 63.824 124.275 63.6507 124.515 63.432C124.76 63.2133 124.998 62.9627 125.227 62.68C125.462 62.392 125.662 62.0907 125.827 61.776C125.656 61.8187 125.472 61.8667 125.275 61.92C125.078 61.968 124.888 62.0187 124.707 62.072C124.531 62.12 124.384 62.1653 124.267 62.208C124.203 62.2293 124.15 62.2373 124.107 62.232C124.064 62.2267 124.022 62.216 123.979 62.2C123.92 62.168 123.856 62.128 123.787 62.08C123.718 62.032 123.672 61.9947 123.651 61.968C123.635 61.9413 123.638 61.9093 123.659 61.872C123.686 61.8293 123.715 61.8107 123.747 61.816C123.928 61.8373 124.152 61.8373 124.419 61.816C124.686 61.7893 124.958 61.752 125.235 61.704C125.512 61.6507 125.75 61.5973 125.947 61.544C126.022 61.3893 126.083 61.232 126.131 61.072C126.184 60.912 126.224 60.7547 126.251 60.6C126.262 60.5467 126.259 60.5173 126.243 60.512C126.227 60.5013 126.214 60.496 126.203 60.496C126.198 60.496 126.195 60.496 126.195 60.496C126.067 60.496 125.942 60.5013 125.819 60.512C125.696 60.5173 125.574 60.5253 125.451 60.536C125.227 60.5573 125.054 60.5787 124.931 60.6C124.808 60.6213 124.67 60.648 124.515 60.68C124.435 60.7067 124.379 60.7147 124.347 60.704C124.32 60.6933 124.291 60.6773 124.259 60.656C124.243 60.6453 124.232 60.6373 124.227 60.632C124.174 60.584 124.123 60.536 124.075 60.488C124.027 60.4347 123.995 60.3947 123.979 60.368C123.963 60.3413 123.968 60.3067 123.995 60.264C124.027 60.216 124.062 60.1973 124.099 60.208C124.211 60.2293 124.342 60.2453 124.491 60.256C124.646 60.2667 124.827 60.2667 125.035 60.256C125.168 60.2453 125.318 60.2347 125.483 60.224C125.648 60.208 125.803 60.1893 125.947 60.168C126.091 60.1467 126.192 60.1227 126.251 60.096C126.288 60.0747 126.331 60.0747 126.379 60.096L126.803 60.272C126.824 60.2827 126.84 60.2987 126.851 60.32C126.867 60.3413 126.867 60.368 126.851 60.4C126.798 60.5227 126.752 60.6373 126.715 60.744C126.678 60.8507 126.638 60.9627 126.595 61.08C126.51 61.3147 126.4 61.5467 126.267 61.776C126.363 61.792 126.499 61.8027 126.675 61.808C126.856 61.808 127.118 61.7947 127.459 61.768L127.643 61.752V60.64C127.643 60.6187 127.643 60.6 127.643 60.584C127.643 60.5627 127.643 60.544 127.643 60.528C127.643 60.3147 127.63 60.1467 127.603 60.024C127.576 59.896 127.48 59.7813 127.315 59.68C127.256 59.6373 127.243 59.5893 127.275 59.536C127.307 59.4827 127.339 59.448 127.371 59.432C127.408 59.416 127.448 59.4107 127.491 59.416C127.55 59.4213 127.616 59.4427 127.691 59.48C127.766 59.5173 127.835 59.5573 127.899 59.6C127.963 59.6427 128.006 59.6747 128.027 59.696C128.054 59.7227 128.075 59.7493 128.091 59.776C128.112 59.7973 128.12 59.824 128.115 59.856C128.099 59.952 128.088 60.0613 128.083 60.184C128.083 60.3067 128.083 60.424 128.083 60.536C128.083 60.5573 128.083 60.5787 128.083 60.6C128.083 60.616 128.083 60.632 128.083 60.648V62.528C128.083 62.6293 128.078 62.7387 128.067 62.856C128.056 62.9733 128.032 63.08 127.995 63.176C127.958 63.2667 127.902 63.328 127.827 63.36C127.784 63.376 127.752 63.376 127.731 63.36C127.71 63.3387 127.696 63.3173 127.691 63.296C127.675 63.2373 127.662 63.1387 127.651 63C127.646 62.856 127.643 62.704 127.643 62.544V62.04L127.475 62.056C127.272 62.072 127.115 62.0907 127.003 62.112C126.891 62.1333 126.774 62.1573 126.651 62.184C126.592 62.1947 126.544 62.2 126.507 62.2C126.475 62.1947 126.438 62.1787 126.395 62.152C126.368 62.1307 126.328 62.104 126.275 62.072C126.227 62.0347 126.187 62 126.155 61.968C125.984 62.2507 125.787 62.528 125.563 62.8C125.344 63.0667 125.11 63.312 124.859 63.536C124.608 63.76 124.352 63.944 124.091 64.088ZM125.115 66.72C125.062 66.7413 125 66.744 124.931 66.728C124.867 66.7173 124.822 66.696 124.795 66.664C124.774 66.632 124.798 66.5973 124.867 66.56C125.144 66.416 125.403 66.248 125.643 66.056C125.888 65.8693 126.107 65.6773 126.299 65.48C126.491 65.2827 126.651 65.104 126.779 64.944C126.907 64.7787 126.995 64.6507 127.043 64.56C127.134 64.4053 127.192 64.2667 127.219 64.144C127.246 64.0213 127.195 63.9147 127.067 63.824C127.04 63.7973 127.019 63.7733 127.003 63.752C126.992 63.7307 126.998 63.7013 127.019 63.664C127.078 63.5467 127.176 63.5173 127.315 63.576C127.374 63.6027 127.446 63.6427 127.531 63.696C127.616 63.7493 127.688 63.8 127.747 63.848C127.854 63.9387 127.894 64.008 127.867 64.056C127.824 64.12 127.771 64.2027 127.707 64.304C127.648 64.4 127.584 64.5013 127.515 64.608C127.718 64.7573 127.936 64.912 128.171 65.072C128.411 65.2267 128.635 65.3653 128.843 65.488C129.056 65.6107 129.222 65.6933 129.339 65.736C129.392 65.7573 129.443 65.808 129.491 65.888C129.544 65.9627 129.59 66.0453 129.627 66.136C129.664 66.232 129.683 66.3147 129.683 66.384C129.672 66.448 129.627 66.4987 129.547 66.536C129.472 66.5787 129.427 66.592 129.411 66.576C129.299 66.448 129.152 66.3013 128.971 66.136C128.79 65.976 128.598 65.8133 128.395 65.648C128.192 65.4827 127.998 65.3307 127.811 65.192C127.63 65.048 127.48 64.9333 127.363 64.848C127.192 65.0933 126.984 65.3387 126.739 65.584C126.494 65.824 126.23 66.0427 125.947 66.24C125.67 66.4373 125.392 66.5973 125.115 66.72ZM129.051 64.128C129.014 64.144 128.984 64.144 128.963 64.128C128.942 64.1067 128.928 64.0853 128.923 64.064C128.902 64.0053 128.886 63.8933 128.875 63.728C128.87 63.5573 128.867 63.3947 128.867 63.24V60.232C128.867 60.2213 128.867 60.2027 128.867 60.176C128.867 60.0267 128.862 59.9093 128.851 59.824C128.84 59.7387 128.811 59.6667 128.763 59.608C128.715 59.544 128.63 59.4747 128.507 59.4C128.448 59.3573 128.435 59.3093 128.467 59.256C128.526 59.16 128.598 59.12 128.683 59.136C128.779 59.152 128.886 59.192 129.003 59.256C129.12 59.3147 129.208 59.368 129.267 59.416C129.294 59.4427 129.315 59.4693 129.331 59.496C129.352 59.5173 129.36 59.544 129.355 59.576C129.339 59.688 129.328 59.7947 129.323 59.896C129.318 59.9973 129.315 60.112 129.315 60.24V63.224C129.315 63.336 129.307 63.456 129.291 63.584C129.28 63.712 129.256 63.8267 129.219 63.928C129.182 64.0293 129.126 64.096 129.051 64.128ZM135.837 62.92V63.152C135.837 63.2907 135.768 63.36 135.629 63.36H133.277V63C133.277 62.9467 133.304 62.92 133.357 62.92H135.837Z" fill="black"/>
</svg>
